<svg width="66" height="56" viewBox="0 0 66 56" fill="none" xmlns="http://www.w3.org/2000/svg">
<path d="M33 48.0807C32.8885 48.0807 32.7771 48.0562 32.6772 48.0072L4.60117 34.2251C4.40201 34.1273 4.27942 33.947 4.27942 33.7517C4.27942 33.5565 4.40201 33.376 4.60117 33.2784L13.1246 29.0943C13.4329 28.9431 13.827 29.0325 14.0053 29.2938C14.1835 29.5554 14.0782 29.8898 13.7701 30.0411L6.21108 33.7517L33 46.902L59.7889 33.7517L52.2297 30.0411C51.9215 29.8898 51.8163 29.5554 51.9946 29.2938C52.1729 29.0324 52.5672 28.9431 52.8753 29.0943L61.3987 33.2784C61.5978 33.3761 61.7204 33.5565 61.7204 33.7517C61.7204 33.947 61.5978 34.1274 61.3987 34.2251L33.3228 48.0072C33.2229 48.0562 33.1115 48.0807 33 48.0807Z" fill="black"/>
<path d="M33 41.0207C32.8885 41.0207 32.7771 40.9962 32.6772 40.9472L4.60117 27.1652C4.40201 27.0674 4.27942 26.8871 4.27942 26.6918C4.27942 26.4966 4.40201 26.3162 4.60117 26.2185L13.1246 22.0345C13.4329 21.8833 13.827 21.9727 14.0053 22.234C14.1835 22.4954 14.0782 22.83 13.7701 22.9813L6.21108 26.6918L33 39.842L59.7889 26.6918L52.2297 22.9813C51.9215 22.83 51.8163 22.4954 51.9946 22.234C52.1729 21.9726 52.5672 21.8833 52.8753 22.0345L61.3987 26.2185C61.5978 26.3162 61.7204 26.4966 61.7204 26.6918C61.7204 26.8871 61.5978 27.0675 61.3987 27.1652L33.3228 40.9472C33.2229 40.9962 33.1115 41.0207 33 41.0207Z" fill="black"/>
<path d="M33 33.9609C32.8885 33.9609 32.7771 33.9364 32.6772 33.8874L4.60117 20.1054C4.40201 20.0076 4.27942 19.8273 4.27942 19.632C4.27942 19.4368 4.40201 19.2565 4.60117 19.1587L32.6772 5.37666C32.8769 5.27866 33.1231 5.27866 33.3228 5.37666L61.3988 19.1587C61.598 19.2565 61.7206 19.4368 61.7206 19.632C61.7206 19.8273 61.598 20.0076 61.3988 20.1054L33.3228 33.8874C33.2229 33.9364 33.1115 33.9609 33 33.9609ZM6.21108 19.632L33 32.7823L59.7889 19.6322L33 6.48178L6.21108 19.632Z" fill="black"/>
</svg>
