<svg width="50" height="60" viewBox="0 0 50 60" fill="none" xmlns="http://www.w3.org/2000/svg">
<path fill-rule="evenodd" clip-rule="evenodd" d="M25.0063 12.33C20.4109 8.03813 13.7531 8.42438 9.52969 13.4906C4.95625 18.9788 4.95625 27.8906 9.52969 33.3788L23.8922 50.6137C24.5031 51.3469 25.4922 51.3469 26.1031 50.6137L40.4656 33.3788C45.0391 27.8906 45.0391 18.9788 40.4656 13.4906C36.2625 8.44688 29.6047 8.09063 25.0063 12.33ZM25 16.695C25.6844 16.68 26.0422 16.2112 26.0984 16.1531C29.7781 12.3094 34.9125 12.1312 38.2563 16.1437C41.6094 20.1675 41.6094 26.7019 38.2563 30.7275L24.9969 46.6369L11.7391 30.7275C8.38594 26.7019 8.38594 20.1675 11.7391 16.1437C15.0938 12.1181 20.5406 12.12 23.8953 16.1456C24.1875 16.4963 24.5859 16.695 25 16.695Z" fill="black"/>
</svg>
