<svg width="67" height="65" viewBox="0 0 67 65" fill="none" xmlns="http://www.w3.org/2000/svg">
<g clip-path="url(#clip0_21_7)">
<path fill-rule="evenodd" clip-rule="evenodd" d="M43.2666 7.74818V7.79276L43.2895 7.81511V7.9044L43.314 7.94911V8.0384L43.3385 8.06076L43.3629 8.12769L43.4119 8.21698L43.4364 8.3064L43.4593 8.35112V8.41805L43.4838 8.48498L43.5327 8.55205L43.5817 8.68591V8.77534L43.6306 8.81991L43.6551 8.88698L43.7025 8.97627L43.727 9.0432L43.7515 9.08792V9.19956L43.8004 9.26649L43.8249 9.33342V9.40049L43.8494 9.48978V9.55671L43.8738 9.62378L43.9212 9.69071L43.9702 9.82485V9.86943L44.0436 10.0034L44.0681 10.0704L44.117 10.1596L44.1645 10.2044L44.1889 10.2491L44.2379 10.2938V10.316L44.2868 10.3384L44.3098 10.3829L44.3587 10.4277H44.3832L44.4077 10.45H44.5285L44.553 10.4277H44.5774L44.0681 12.3703V12.348H44.0191L43.9702 12.3256L43.8494 12.3034L43.8249 12.2809L43.5572 12.1694L43.314 12.013L43.2176 11.9237L43.1197 11.8567L43.0234 11.745L42.9255 11.6557L42.8536 11.5663L42.8046 11.4548L42.7067 11.3655L42.6823 11.2761L42.5614 11.0306L42.5369 10.9413L42.488 10.8295L42.4161 10.5617V10.3384L42.3916 10.2491V9.75778L42.4161 9.6685V9.37814L42.4406 9.28885V9.19956L42.488 9.06556V9.02099L42.5369 8.95391L42.5614 8.86449L42.6104 8.77534L42.6578 8.70827L42.6823 8.64134L42.7312 8.55205L42.7801 8.50734L42.8046 8.41805L42.8536 8.37334L42.8765 8.3064L42.9255 8.23947L42.9499 8.17254L42.9989 8.12769L43.0234 8.08312L43.0723 8.0384V7.99383L43.1197 7.94911V7.92676L43.1687 7.88218L43.1931 7.83747V7.81511L43.2421 7.77054V7.74818H43.2666Z" fill="#FFF50D"/>
<path fill-rule="evenodd" clip-rule="evenodd" d="M44.3098 11.3877L44.5285 10.4053L44.6019 10.4276H44.966L45.0149 10.4053H45.1602L45.2336 10.3829L45.3315 10.3384H45.4034L45.4524 10.316H45.5977L45.6466 10.2713L45.792 10.2267L45.8409 10.2044H45.9143L45.9617 10.1596L46.0352 10.1151L46.0841 10.0927L46.156 10.0704L46.2294 10.0256L46.2784 9.98107L46.3273 9.95871H46.3503L46.4237 9.914L46.4726 9.86943L46.5461 9.82485L46.6669 9.71321L46.8122 9.62378L46.8612 9.57921L46.9346 9.48978L46.9835 9.44507L47.0799 9.37813L47.1288 9.3112V9.28885L47.2007 9.24427L47.2497 9.15485L47.3231 9.08792L47.372 8.99849L47.4684 8.90934L47.6627 8.6637L47.7116 8.52969L47.808 8.44041V8.41805L47.9304 8.21698L47.9793 8.10547L48.0757 7.99383L48.1001 7.88218L48.198 7.74818L48.2455 7.59196L48.3433 7.45782V7.43547L48.3678 7.34618L48.5131 7.05596L48.634 6.74338L51.6718 7.85983L51.6473 7.88218L51.4775 8.26169L51.3796 8.41805L51.2817 8.61898L50.6515 9.57921L50.5292 9.71321L50.4328 9.86943L50.3104 10.0034L49.85 10.5617L49.2412 11.1199L49.1449 11.1868L49.1204 11.2092L48.8772 11.3877L48.7563 11.4994L48.611 11.5663L48.3678 11.745L47.9793 11.946L47.8569 11.9907L47.7116 12.08L47.5892 12.1023V12.1247L47.0799 12.3256L46.8122 12.3703L46.6669 12.4373L46.4237 12.482H46.2784L46.182 12.5265H46.0352L45.9143 12.5489H45.7675L45.6466 12.5713H45.2826L45.1602 12.5489H45.0639L44.9415 12.5265H44.8451L44.3832 12.4373H44.2868L44.1889 12.3927L44.0681 12.3703L44.3098 11.3877Z" fill="#FFF50D"/>
<path fill-rule="evenodd" clip-rule="evenodd" d="M50.1651 7.32382L48.634 6.76574L48.7074 6.58702L48.7319 6.47538L48.7563 6.40845V6.34152L48.8053 6.09587V6.00644L48.8282 5.87258V5.51529L48.8053 5.44822V5.33658L48.7563 5.13565V5.04636L48.7074 4.93471L48.6829 4.84529L48.634 4.73378V4.71142L48.611 4.66671L48.5865 4.57742L48.4886 4.39885L48.4397 4.33192L48.3678 4.26485L48.3433 4.1532L48.2699 4.10849L48.221 4.0192H48.198L48.1491 3.97463L48.1001 3.90756L47.8569 3.68427L47.7605 3.63969L47.7116 3.59484L47.6382 3.55027H47.5892L47.4929 3.48334L47.4439 3.46098L47.372 3.43862H47.3231L47.2497 3.41626L47.2007 3.39405H47.0799L47.0065 3.37169H46.8611L46.8122 3.39405H46.6914L46.5935 3.43862H46.546L46.4726 3.46098V3.48334L46.3992 3.50569L46.3273 3.55027L46.2784 3.57262L46.133 3.66191L45.9862 3.79591L45.9143 3.84063L43.4363 1.36209L43.7514 1.07187L44.6264 0.535865L44.8696 0.446578L45.0883 0.334933H45.1357L45.3315 0.245646L46.0351 0.0892875L46.3028 0.0669304L46.546 0.022357L46.7877 0H47.0309L47.4439 0.0445734H47.4929L47.7361 0.0892875L47.9793 0.111644L48.634 0.312576L49.2657 0.580579L50.0198 1.04951L50.3594 1.31738L51.0645 2.07667L51.089 2.12124L51.2098 2.27746L51.3307 2.47854L51.4775 2.63475L51.866 3.41626L51.915 3.61734L52.0603 4.0192L52.2301 4.89014V5.11343L52.2545 5.33658L52.2301 5.51529V5.80551L52.2056 6.0288L52.1092 6.49774L52.0848 6.72102L52.0113 6.94431L51.9624 7.1676L51.915 7.25689L51.866 7.41325L51.6718 7.85983L50.1651 7.32382Z" fill="#FFF50D"/>
<path fill-rule="evenodd" clip-rule="evenodd" d="M42.4161 6.63174H42.1239L41.5412 6.76574L40.6418 7.07832H40.6173L40.3511 7.10067L38.9653 7.45782H38.8689L38.5278 7.56947L38.1883 7.63654L37.5091 7.85983L37.3148 7.94911L37.1435 7.97147L35.7103 8.50734L35.6858 8.52969L33.0381 9.73543L32.723 9.93636L32.674 9.95871L31.3861 10.7849L30.245 11.7005L30.1241 11.7674L29.2737 12.5713L29.0305 12.8616L28.9571 12.8838L28.7138 13.2188L28.4232 13.5313L27.4274 15.0045L27.2806 15.2956L27.2087 15.4067L26.6489 16.6356V16.6567L26.2114 18.0417H26.1885L25.9208 19.4717L25.7755 21.2574L25.7984 22.485L22.1304 22.575V20.4981L22.3017 19.1356V19.0246L22.6902 17.2599L22.7147 17.2163L23.2975 15.5191L23.8069 14.4463L24.7063 12.9508L25.2646 12.214L25.4099 12.08L25.751 11.6334L26.5036 10.8519L27.7425 9.78014L28.18 9.48978L28.593 9.15485L29.9284 8.32876L31.3387 7.61418L33.1115 6.9221L34.8843 6.40845L34.9332 6.38609L36.804 6.00644L38.2127 5.85023H40.2777L40.5928 5.8948H40.6173L41.8088 6.27445L42.0031 6.40845L42.2937 6.54245L42.4161 6.63174Z" fill="#FFF50D"/>
<path fill-rule="evenodd" clip-rule="evenodd" d="M22.3492 26.214V26.1915H22.4715L22.6658 26.1479H22.8356L23.1751 26.1029H23.6126L23.8558 26.0579H24.1235L24.4141 26.0129L25.0459 25.9904L26.4072 26.1029H26.7713L27.5728 26.1915H27.6691L32.2855 26.8172L32.723 26.9283L33.6209 27.0632L36.5608 27.7775L39.0632 28.6479L40.2777 29.2511L40.8131 29.6308L41.4922 30.3001L41.8089 30.8808L41.9297 31.2155L42.0031 31.5726V32.0422L41.9786 32.1533L40.4475 31.9087L38.8689 31.8187L38.771 31.7076V31.6851L38.6747 31.5951L37.7508 31.0369L37.2414 30.7922L37.0227 30.7247L36.9493 30.6797L32.3344 29.0951L32.1402 29.0726L24.8271 27.1518L22.3981 26.214H22.3492Z" fill="#FFF50D"/>
<path fill-rule="evenodd" clip-rule="evenodd" d="M40.4475 31.9087L41.9786 32.1533L41.7599 33.0687L41.6391 33.3148L41.6146 33.4483L40.4475 35.8387L40.4001 35.8823L39.2085 37.8705L39.1121 37.9816L36.2212 42.0227L36.1722 42.1127L31.2408 47.7175L30.9976 47.9185L30.7788 48.1421L30.5127 48.3418L30.2939 48.5428L29.3945 49.1686L29.1513 49.3021L28.9326 49.4596L28.3987 49.6593L28.0821 49.7493L27.2087 46.4449L27.354 46.3774L27.4504 46.31L27.5728 46.1989L27.7181 46.1089L28.4232 45.5071H28.4477L29.0549 44.9039L29.2982 44.7028L30.0018 43.9885L30.1241 43.8324L30.245 43.7199L31.7027 42.0452L31.7761 42.0227L37.5091 34.4312L37.5321 34.3651L38.407 32.9126L38.6502 32.3994L38.6747 32.2883L38.7481 32.1322L38.7955 31.9747L38.8689 31.8187L40.4475 31.9087Z" fill="#FFF50D"/>
<path fill-rule="evenodd" clip-rule="evenodd" d="M40.7641 12.1694H40.7396V12.2363L40.6907 12.3256L40.6417 12.3703L40.6173 12.4373V12.5042L40.5454 12.5713L40.3756 12.9508L40.3511 13.0402L40.1798 13.3973L39.9626 13.7324L39.7913 13.9333L39.5496 14.2902L39.4517 14.4027V14.4463L39.4028 14.5363L39.2085 14.7823L39.1366 14.8934L39.0632 15.0495L38.9653 15.162L38.9179 15.2956L38.82 15.4292H38.7955L38.771 15.5402L38.5523 15.8988L38.358 16.3895L38.3351 16.4345V16.5006L38.2861 16.6131L38.2372 16.8367V16.9252L38.1883 17.1038V17.1938L38.2127 17.2599V17.3274L38.2372 17.416V17.461L38.2617 17.5285L38.2861 17.5735V17.6395L38.407 17.752V17.7956H38.4315L38.5278 17.8856L36.1967 19.4928L36.1722 19.4717L36.1233 19.4492L36.0743 19.2917L35.929 19.1131L35.5894 18.2653L35.516 17.6395V17.4385L35.565 17.0813V17.0152L35.5894 16.8367L35.6858 16.457L35.978 15.7638L36.1233 15.4966L36.1967 15.4292L36.2931 15.2956L36.4873 14.9609L36.9737 14.4027L37.0716 14.3127L37.0961 14.2677L37.3623 14.0226L37.4846 13.8886L37.8732 13.5313L38.1408 13.3528V13.3304L38.407 13.1518L38.5278 13.0402L38.7955 12.8616L38.9423 12.7945L39.184 12.6158L39.3064 12.5713L39.8402 12.3927L39.9626 12.3703L40.0834 12.3256L40.4475 12.2363L40.4964 12.214H40.5928L40.6417 12.1917H40.6907L40.7152 12.1694H40.7641Z" fill="#FFF50D"/>
<path fill-rule="evenodd" clip-rule="evenodd" d="M37.3378 18.6674L38.4804 17.7956L38.5768 17.9306L38.6502 17.9742L38.6992 18.0192L39.4273 18.3763L39.5741 18.4213L39.7439 18.5113L39.9137 18.5549L39.9381 18.5774L41.9052 19.1131L42.124 19.1356L42.2693 19.1806L43.5083 19.4042L43.6551 19.4492L43.9213 19.4717L44.4321 19.5603L44.6983 19.5828L44.7717 19.6053L46.0841 19.7838H46.2294L46.4482 19.8288L47.1763 19.8949L47.3721 19.9399H47.5893L48.611 20.051H48.9017L49.2183 20.096H49.3391L49.4844 20.1185H49.6787L49.7766 20.141H49.9219L49.9464 20.1635H50.0198L49.7521 23.5128H49.6298L49.5579 23.4903H49.1449L48.8772 23.4453H48.7319L48.3678 23.4003H48.221L47.3721 23.3118L47.1763 23.2668H46.9346L44.1645 22.8196H44.0681L43.7759 22.776L43.5083 22.686L43.2176 22.641L42.9499 22.575L42.6578 22.53L42.3916 22.4414L42.0995 22.3964L41.3959 22.1953L41.249 22.1728L40.7152 21.9942L40.423 21.9267L39.9871 21.7707L39.8892 21.7482L38.6257 21.2349H38.6013L38.407 21.1239L38.1409 21.0114L37.2904 20.4981L37.1925 20.4082L37.0717 20.3646L36.5118 19.8724L36.342 19.6939L36.1967 19.4928L37.3378 18.6674Z" fill="#FFF50D"/>
<path fill-rule="evenodd" clip-rule="evenodd" d="M51.5984 16.2109H51.6473L51.6947 16.2334H51.7192L51.7681 16.2559H51.866L51.9624 16.2784L52.0114 16.2995H52.0848L52.3265 16.367H52.3754L52.3999 16.3895L52.4488 16.412L52.4978 16.457L52.6431 16.5456L52.692 16.5906L52.7639 16.6131L52.8863 16.7242L52.9582 16.7467L53.0316 16.8142L53.0561 16.8592L53.2259 16.9702H53.2503L53.2748 17.0152L53.3482 17.0813L53.4201 17.1038L53.7597 17.416L53.8086 17.4385L53.9065 17.506L54.1727 17.752L54.3195 17.8406L54.344 17.8856L54.3685 17.9081L54.4404 17.9306L54.5138 17.9967L54.6591 18.0867L54.7081 18.1317V18.1528L54.8044 18.1753L54.8534 18.2428L54.9268 18.2653L54.9742 18.3328L55.0476 18.3538L55.0966 18.3988L55.17 18.4213L55.3153 18.5113H55.3643L55.4362 18.5549L55.4606 18.5774L53.5425 21.1014V21.0789L53.4691 21.0339L53.2748 20.8553L53.0561 20.6992L52.9582 20.6092L52.8863 20.5206L52.8618 20.4982L52.6431 20.2296L52.5452 20.141L52.4978 20.051L52.4488 20.0285L52.3999 19.9399L52.3265 19.8499L52.279 19.7614L52.1322 19.5828L52.1093 19.5378L52.0848 19.4717L52.0114 19.3817L51.866 19.0906L51.8171 19.0246L51.7437 18.891L51.7192 18.801L51.6228 18.6224L51.5984 18.5113L51.502 18.3328L51.4286 18.0417L51.3796 17.9531L51.3307 17.7956V17.6845L51.2817 17.5285V17.3499L51.2588 17.2824V17.2163L51.2343 17.1263V16.9927L51.2098 16.9252V16.9027L51.2588 16.8592L51.2817 16.7692L51.3307 16.7242V16.6356L51.3796 16.5906L51.4041 16.5006L51.4286 16.457L51.4775 16.412V16.367L51.502 16.322L51.5249 16.2995L51.5494 16.2559L51.5739 16.2109H51.5984Z" fill="#FFF50D"/>
<path fill-rule="evenodd" clip-rule="evenodd" d="M54.5138 19.8288L55.4606 18.5774L55.534 18.6224L55.6793 18.6674L55.7283 18.7124L55.947 18.7785L55.996 18.801L56.0679 18.846H56.0923L56.1168 18.8685H56.1658L56.2377 18.9121H56.2866L56.36 18.9571H56.409L56.4564 18.9796H56.4809L56.5298 19.0021H56.5788L56.6506 19.0246L56.6751 19.0471H56.7485L56.773 19.0695L56.822 19.0906H56.8464L56.8939 19.1131H56.9918L57.0407 19.1356H57.1126L57.1615 19.1581H57.186L57.2824 19.2031H57.4292L57.4537 19.2256H57.648V19.2481H57.8177L57.7443 22.641H57.4766L57.4292 22.62H57.3558L57.3068 22.5975H57.2105L57.1615 22.575H57.0636L57.0162 22.5525H56.8939L56.822 22.53H56.773L56.6996 22.5075L56.6506 22.485H56.5543L56.4809 22.4625L56.4334 22.4414H56.36L56.2621 22.4189L56.2132 22.3964L55.8002 22.2839L55.7283 22.2403L55.5585 22.1953L55.4851 22.1503L55.3642 22.1278L55.3153 22.0828L55.2189 22.0617L55.121 22.0167L55.0476 21.9717L54.9987 21.9492H54.9513L54.8534 21.9043L54.757 21.8382L54.6836 21.8157L54.5857 21.7482L54.4893 21.7257L54.4404 21.6596H54.3914L54.3195 21.5921L54.1972 21.5471L54.1253 21.481L54.0274 21.4135L53.931 21.3685L53.8821 21.3249L53.8331 21.3024L53.7597 21.2349L53.6388 21.1675L53.5425 21.1014L54.5138 19.8288Z" fill="#FFF50D"/>
<path fill-rule="evenodd" clip-rule="evenodd" d="M19.7993 39.1206L19.8238 39.2766L19.8957 39.4102L19.9201 39.5677L20.041 39.8799V40.0584L20.1389 40.3706L20.1878 40.7277L20.2612 40.9063L20.3087 41.2424V41.4209L20.3576 41.577L20.4065 41.9567V42.1352L20.431 42.2463V42.3138L20.454 42.4924V42.6935L20.5029 43.0717V43.6313L20.5274 43.8099V44.6128L20.5029 44.8153V45.4396L20.454 45.7967V45.9978L20.431 46.1989V46.4224L20.4065 46.6235V46.8246L20.3576 47.0257V47.2253L20.3087 47.4489V47.65L20.1389 48.6103V48.6778L19.8957 49.9729L19.8238 50.1739L19.7993 50.3736L19.5561 51.2454L19.5316 51.424L19.2639 51.4015L19.0222 51.3115L19.1431 50.9107L19.2395 50.6872L19.8238 48.6328V48.5654L19.8712 48.4318L19.9201 48.2307L19.9446 48.0296L20.041 47.605L20.0654 47.4053L20.1144 47.2042L20.1878 46.601L20.2368 46.4L20.2612 46.1764L20.3087 45.9753V45.7967L20.3576 45.4171V45.1935L20.4065 44.7928V44.6128L20.431 44.3906V42.872L20.4065 42.6935V42.2463L20.3576 41.9567V41.7781L20.3087 41.5995V41.442L20.2612 41.0849L20.2123 40.9063L20.1389 40.3706L20.041 40.0584L20.018 39.8799L19.9201 39.5677L19.8957 39.4102L19.8238 39.2766L19.7993 39.1206Z" fill="#FFF50D"/>
<path fill-rule="evenodd" clip-rule="evenodd" d="M19.2639 51.4015L19.5316 51.4239L19.4107 51.7586V51.8261L17.3213 57.1173L16.9328 57.7205V57.788L15.256 60.3105L15.0374 60.5566L14.843 60.8251L13.0941 62.6109L12.6323 62.9905L12.5595 63.0341L12.4137 63.1691L11.9036 63.5263L11.6607 63.6598L11.1992 63.972L10.2031 64.4641L9.18285 64.7763L9.15853 64.7988L8.35686 64.9549L7.50655 64.9999L6.99643 64.9549H6.70488L6.14611 64.8438L6.12179 64.8213H6.09763L6.77784 62.6784L7.1422 62.7895L7.48223 62.8345H7.62815L7.94387 62.8781L8.13813 62.8556H8.30822L8.67257 62.812L9.42575 62.6559L9.83859 62.4984L10.033 62.4548L10.2274 62.3423L10.6404 62.1638L11.7335 61.5394L13.0454 60.5341L13.8956 59.7298V59.7073L14.09 59.4851L14.3329 59.2616L15.9355 57.2522L15.9844 57.2297L17.6609 54.4611L18.7545 52.0483L18.8754 51.6686L18.8999 51.625L19.0222 51.3115L19.2639 51.4015Z" fill="#FFF50D"/>
<path fill-rule="evenodd" clip-rule="evenodd" d="M6.46199 63.7498L6.09764 64.8213L5.636 64.7088L4.85865 64.3966L4.1298 63.9945L3.27964 63.3252L2.69655 62.722L2.52661 62.4984L2.3322 62.2987L1.31179 60.5566L0.850311 59.4401L0.777348 59.1491L0.655897 58.8594L0.583088 58.5248L0.534446 58.4123L0.510125 58.2337L0.412995 57.9215L0.121451 56.2919V55.9558L0.0486416 55.6212L0 53.1211L0.291544 50.0839L0.388827 49.7043L0.412995 49.3021L1.14185 46.5335L4.66424 47.4939L4.25125 48.9L4.20276 49.0125L3.64399 51.6475L3.42541 53.6118L3.4739 56.8726L3.52254 57.1398L3.54686 57.4308L3.61982 57.8105V57.944L3.78976 58.6808L3.88689 58.9044L4.15427 59.7973L4.25125 59.9759L4.32421 60.1994L4.4943 60.4891L4.51862 60.5566L4.71288 60.9137L4.81001 61.0473L4.9073 61.2259L5.05307 61.3609L5.15005 61.4944L5.27165 61.628L5.36878 61.7616L5.49038 61.8741L5.636 61.9852L5.73313 62.0963L5.87891 62.2087L6.14613 62.3423L6.19477 62.4098L6.26758 62.4548L6.41335 62.4984L6.68057 62.6334L6.85067 62.6995L6.46199 63.7498Z" fill="#FFF50D"/>
<path fill-rule="evenodd" clip-rule="evenodd" d="M2.8908 47.0032L1.14185 46.5335L1.65197 44.9924H1.67614L2.45364 43.1167L2.57494 42.917L2.62373 42.782L2.98809 42.0677L3.10954 41.8892L3.35244 41.3984L3.57102 41.0849L3.74111 40.7502L4.81 39.2091L5.00442 38.987L5.05306 38.942L5.49038 38.3613L7.43375 36.3969L7.48223 36.3744L7.94387 35.9723L8.21109 35.7937L8.40551 35.6151H8.47832L8.72122 35.4141L9.47425 34.9444L10.6161 34.3862V34.3651L11.4178 34.0741L11.685 34.0066L11.8794 33.9405H11.9765L13.191 33.7394H13.5799L14.5516 33.8505L15.1104 34.164L15.5225 34.4537L15.6693 34.6098H15.6938L15.4506 34.6548L14.7702 34.8994L14.576 35.0119L14.5028 35.0344L14.3815 35.0569L14.2115 35.123L13.9929 35.168L13.8469 35.258L13.6527 35.3241L13.5799 35.3691H13.4584L13.2883 35.4802L13.0941 35.5477L12.7296 35.7262L12.6809 35.7712L12.3895 35.9723L12.1953 36.0609L12.025 36.1959L11.8549 36.3069L11.8308 36.3294L11.6363 36.4405L11.1021 36.8877V36.9102L10.3489 37.5795L9.45008 38.5398L9.30431 38.7634L9.08557 38.9645L9.03708 39.0756L8.91563 39.1881L8.40551 39.8799L8.21109 40.1245L7.89523 40.6616L7.84674 40.7052L6.87498 42.2913L6.82634 42.4474L5.15004 46.0864V46.1089L5.00442 46.4449L4.66423 47.4939L2.8908 47.0032Z" fill="#FFF50D"/>
<path fill-rule="evenodd" clip-rule="evenodd" d="M66.2719 39.1206L66.5136 39.8799L66.5381 40.0584L66.636 40.3706L66.6849 40.7277L66.7323 40.9063L66.8058 41.4209L66.8547 41.577V41.7781L66.8792 41.9567V42.1352L66.9021 42.2463L66.9266 42.3138L66.9511 42.4924V42.6935L67 43.0717V45.4396L66.9511 45.7967V45.9978L66.8792 46.6235V46.8246L66.8547 47.0257V47.2253L66.7323 47.851V48.0746L66.636 48.4768V48.6103L66.6115 48.6778L66.587 48.9225L66.4907 49.3246L66.4662 49.5482L66.174 50.8207L66.1006 51.0218L66.0042 51.424L65.761 51.4015L65.5178 51.3115L65.5668 51.0893L65.7855 50.4861L65.8345 50.285L65.9079 50.0839L65.9553 49.8604L66.0287 49.6593L66.0777 49.4596L66.223 49.0575L66.2474 48.8339L66.3209 48.6328V48.5654L66.7323 46.4V46.1764L66.7813 45.9753L66.8547 45.4171V44.9924L66.8792 44.7928V44.6128L66.9021 44.3906V44.0335L66.9266 43.8099V43.2517L66.9021 43.0717V42.872L66.8792 42.6935V42.2463L66.8547 42.1352V41.7781L66.8058 41.5995L66.6849 40.7277L66.636 40.5717L66.587 40.237L66.2719 39.1206Z" fill="#FFF50D"/>
<path fill-rule="evenodd" clip-rule="evenodd" d="M65.761 51.4015L66.0042 51.4239L65.9078 51.7586V51.8261L64.8861 54.7508L64.8371 54.8183L64.7408 55.1079L63.6241 57.4308L63.4284 57.7205L63.4054 57.788L61.9477 60.0434L60.2712 61.9852L58.8869 63.1691L57.9386 63.8159L56.6751 64.4641L55.6549 64.7763L55.6319 64.7988L54.8289 64.9549L54.0029 64.9999L53.4691 64.9549H53.1769L52.6431 64.8438L52.6186 64.8213H52.5941L53.2748 62.6784L53.6388 62.7895L53.9555 62.8345H54.1253L54.4404 62.8781L54.6101 62.8556H54.8044L55.1455 62.812H55.17L55.3398 62.7895L56.1168 62.5884L56.3111 62.4984L56.5053 62.4548L57.3558 62.0527L57.5501 61.9191L57.7933 61.8066L57.9386 61.718L57.9875 61.673L58.6437 61.2259L58.838 61.0473L59.0812 60.8912L59.5171 60.5341L59.7374 60.3105L59.9546 60.1319L60.1504 59.9309L60.3921 59.7298V59.7073L61.6555 58.3012L62.4326 57.2522L62.457 57.2297L64.109 54.5272L65.5178 51.3115L65.761 51.4015Z" fill="#FFF50D"/>
<path fill-rule="evenodd" clip-rule="evenodd" d="M52.9582 63.7498L52.5941 64.8213L52.1092 64.7088L51.3307 64.3966L50.4083 63.8384L49.9709 63.5038L49.5579 63.1241L49.3881 62.923L49.1693 62.722L49.024 62.4984L48.8282 62.2987L48.4887 61.8291L48.4642 61.7405L47.9304 60.8026L47.3231 59.4401L47.2497 59.1266L47.1533 58.8369L47.0799 58.5248L47.0309 58.4123L46.5705 55.9347L46.5935 51.2454L46.6669 50.8432L46.6914 50.4636L47.1288 48.2307L47.1763 48.1421L47.5892 46.5335L51.1135 47.4939L50.7005 48.9V48.99L50.0917 51.9372V51.9597L50.0198 52.629L49.9464 52.9425V56.8726L50.0672 57.6755L50.1162 57.8105V57.944L50.1896 58.1676L50.2141 58.4348L50.286 58.6583L50.3349 58.9044L50.4328 59.1266L50.4802 59.3726L50.5781 59.5737L50.7234 59.9759L50.9666 60.4891L51.0156 60.5566L51.089 60.7352L51.3062 61.0473L51.4041 61.2259L51.5249 61.3609L51.6228 61.4944L51.866 61.7616L52.2301 62.0963L52.3754 62.2087L52.6431 62.3423L52.6676 62.4098L53.3238 62.6995L52.9582 63.7498Z" fill="#FFF50D"/>
<path fill-rule="evenodd" clip-rule="evenodd" d="M49.3881 47.0032L47.5892 46.5335L48.1246 44.9924L49.024 42.917L49.1204 42.782L49.2657 42.4249L50.4328 40.4156L50.7968 39.9248L50.8458 39.7899L51.4775 38.987L51.5249 38.942L53.1524 37.0887L53.931 36.3969H53.9555L54.4404 35.9723L54.708 35.7937L54.9023 35.6151H54.9742L55.2189 35.4141L55.4851 35.258L55.7283 35.0794L55.9715 34.9444L55.996 34.9219L57.0881 34.3862L57.1126 34.3651L57.9141 34.0741L58.1818 34.0066L58.376 33.9405H58.4495L58.7401 33.8955L59.0078 33.828L59.2755 33.8055L59.5416 33.7619H59.6885L59.8093 33.7394L60.854 33.828L61.0483 33.873L61.8008 34.2976L62.1909 34.6323L61.9477 34.6773L61.267 34.8994L60.9993 35.0344L60.6842 35.1455L60.49 35.1905L60.1259 35.3241L60.0525 35.3691L59.9546 35.3916L59.7603 35.5027L59.3963 35.6587L58.3271 36.3069V36.3294L58.1328 36.4405L57.7933 36.7316L57.5745 36.8877L57.5501 36.9102L57.4292 37.0437L57.2105 37.2223L56.8694 37.557L56.8464 37.602L56.1168 38.3388L55.9715 38.5398L55.7528 38.7634L55.6075 38.9645L55.4851 39.0756L55.4117 39.2091L55.2189 39.4102L55.0721 39.6563L54.9023 39.8799H54.8778L54.3685 40.6616L54.3195 40.7052L53.8576 41.442L53.8086 41.5545L53.6878 41.7331L52.8129 43.3403L51.1135 47.4939L49.3881 47.0032Z" fill="#FFF50D"/>
<path fill-rule="evenodd" clip-rule="evenodd" d="M46.5935 34.7884V34.8784L46.6914 35.5027V35.5477L46.5216 36.1734V36.1959L46.3028 36.7316V36.7977L46.0352 37.3559V37.3784L45.5243 38.3838L45.5013 38.4948L44.9185 39.5452L44.8696 39.5902L44.2379 40.6841L44.1889 40.7952L43.9212 41.2199V41.2424L43.6306 41.6656L43.5817 41.7781L43.3629 42.1352L43.2421 42.2913L42.9255 42.827L42.1729 43.8549L42.1239 43.9435L41.1282 45.3285L41.0792 45.4171L38.6991 48.4318L38.6747 48.4543L36.5852 50.8882H36.5607L34.6656 49.5707L36.4644 47.0257L36.4873 47.0032L39.646 42.4699L39.6949 42.3799L39.9626 42.0228L40.0834 41.8892L40.8131 40.8402L40.9339 40.7052L41.5412 39.8799L41.5656 39.8574L42.7312 38.3613L42.7557 38.3388L43.0723 37.9816L43.314 37.6245L43.5572 37.4009L43.5817 37.3123L43.8493 36.9777L43.9702 36.9102L44.117 36.6866L44.3832 36.4405V36.418L45.2826 35.5027L45.5013 35.3466L45.7919 35.0794L45.8898 35.0344L46.4237 34.8559L46.5705 34.7884H46.5935Z" fill="#FFF50D"/>
<path d="M46.5935 34.7884V34.8784L46.6914 35.5027V35.5477L46.5216 36.1734V36.1959L46.3029 36.7316V36.7977L46.0352 37.3559V37.3784L45.5243 38.3838L45.5013 38.4948L44.9186 39.5452L44.8696 39.5902L44.2379 40.6841L44.1889 40.7952L43.9213 41.2199V41.2424L43.6306 41.6656L43.5817 41.7781L43.3629 42.1352L43.2421 42.2913L42.9255 42.827L42.1729 43.8549L42.124 43.9435L41.1282 45.3285L41.0792 45.4171L38.6992 48.4318L38.6747 48.4543L38.3351 48.8789" stroke="#FFF50D" stroke-width="0.1212" stroke-miterlimit="10" stroke-linecap="square"/>
<path d="M38.3351 48.8789L36.5852 50.8882H36.5608" stroke="#FFF50D" stroke-width="0.1212" stroke-miterlimit="10" stroke-linecap="square"/>
<path d="M34.6656 49.5707L36.4644 47.0257L36.4873 47.0032L39.646 42.4699L39.6949 42.3799L39.9626 42.0228L40.0834 41.8892L40.8131 40.8402L40.9339 40.7052L41.5412 39.8799L41.5656 39.8574L42.7312 38.3613L42.7557 38.3388L43.0723 37.9816L43.314 37.6245L43.5572 37.4009L43.5817 37.3123L43.8493 36.9777L43.9702 36.9102L44.117 36.6866L44.3832 36.4405V36.418L45.2826 35.5027L45.5013 35.3466L45.7919 35.0794L45.8898 35.0344L46.0841 34.9669" stroke="#FFF50D" stroke-width="0.1212" stroke-miterlimit="10" stroke-linecap="square"/>
<path d="M46.0841 34.9669L46.4237 34.8559L46.5705 34.7884H46.5935" stroke="#FFF50D" stroke-width="0.1212" stroke-miterlimit="10" stroke-linecap="square"/>
<path fill-rule="evenodd" clip-rule="evenodd" d="M35.6139 50.2175L36.5608 50.8882L33.2323 54.1026L33.1849 54.1251L32.1647 54.7733L31.6782 54.9744L31.1673 55.0629H31.071V54.3711L30.9976 53.7018L31.1673 53.6568L31.3142 53.5233L31.6048 53.2997L31.9689 52.9425L32.0178 52.92L33.1849 51.535L33.3547 51.3789L34.6656 49.5707L35.6139 50.2175Z" fill="#FFF50D"/>
<path d="M36.5608 50.8882L33.2323 54.1026L33.1849 54.1251L32.1647 54.7733L31.6782 54.9744L31.1673 55.0629H31.071" stroke="#FFF50D" stroke-width="0.1212" stroke-miterlimit="10" stroke-linecap="square"/>
<path d="M30.9976 53.7018L31.1673 53.6568L31.3142 53.5233L31.6048 53.2997L31.9689 52.9425L32.0178 52.92L33.1849 51.535L33.3547 51.3789L34.6656 49.5707" stroke="#FFF50D" stroke-width="0.1212" stroke-miterlimit="10" stroke-linecap="square"/>
<path fill-rule="evenodd" clip-rule="evenodd" d="M31.071 54.3711V55.0629H30.7788L30.5846 55.0404L30.3903 54.9968H30.1961L28.8607 54.8408L28.7628 54.8183L26.99 54.6172L26.8676 54.5722H26.6734L24.8516 54.3261L24.6818 54.2825L22.9319 54.0815L22.8845 54.059L20.1878 53.7679L19.8957 53.7018L19.5561 53.6568H19.2639L18.9244 53.6118H18.8754L18.6322 53.5668L17.0047 53.4108L16.786 53.3672H16.5443L16.3255 53.3447L16.1313 53.2997H15.7902L15.6204 53.2772H15.4751L15.1104 53.2097H14.8674H15.2074L15.6204 53.2772H15.7902L15.9355 53.2997L29.3456 53.7679L29.6133 53.7468H30.0507L30.2695 53.7243H30.4393L30.6335 53.7018H30.9976L31.071 54.3711Z" fill="#FFF50D"/>
<path d="M31.071 55.0629H30.7788L30.5846 55.0404L30.3903 54.9969H30.1961L28.8607 54.8408L28.7628 54.8183L26.99 54.6172L26.8676 54.5722H26.6734L24.8516 54.3261L24.6818 54.2826L22.9319 54.0815L22.8845 54.059L20.1878 53.7679L19.8957 53.7018L19.5561 53.6568H19.2639L18.9244 53.6118H18.8754L18.6322 53.5668L17.0047 53.4108L16.786 53.3672H16.5443L16.3255 53.3447L16.1313 53.2997" stroke="#FFF50D" stroke-width="0.1212" stroke-miterlimit="10" stroke-linecap="square"/>
<path d="M16.1313 53.2997H15.7902L15.6204 53.2772H15.4751L15.1104 53.2097H14.8674H15.2074L15.6204 53.2772H15.7902L15.9355 53.2997L26.4072 53.7468" stroke="#FFF50D" stroke-width="0.1212" stroke-miterlimit="10" stroke-linecap="square"/>
<path d="M26.4072 53.7468L29.3456 53.7679L29.6133 53.7468H30.0507L30.2695 53.7243H30.4392L30.6335 53.7018H30.9976" stroke="#FFF50D" stroke-width="0.1212" stroke-miterlimit="10" stroke-linecap="square"/>
<path fill-rule="evenodd" clip-rule="evenodd" d="M13.9442 51.469L13.9199 51.424L13.8956 51.4015L13.7985 50.9543L13.7498 50.8207L13.7741 50.7757L13.8228 50.5972L13.8469 50.3975V50.3525L13.9199 50.1739L13.9929 49.9279V49.9054L14.3329 49.1461L14.3572 49.035L14.4787 48.8564L14.7702 48.2307H14.7945L14.9888 47.896L15.0131 47.8286L15.9844 46.2664L16.0578 46.1764L16.3011 45.7742L18.6811 42.7371L18.8264 42.6035L19.6524 41.5995L19.7503 41.532L20.6972 40.4817L23.735 37.5134L23.7824 37.4909L25.338 36.1509L25.9452 35.7262L26.2114 35.5027L27.2332 34.8559L27.8634 34.5648L28.4722 34.4537H28.5196V34.7884L28.5685 35.123L28.3987 35.1455L28.3253 35.168L28.2045 35.258L28.0592 35.3241L27.5483 35.7037L26.7957 36.463L26.7712 36.508L26.0906 37.2673L25.9208 37.5134L25.8718 37.557L25.1193 38.5398L25.0948 38.5848L24.3422 39.5677L24.2933 39.6563L23.5407 40.7052L23.4918 40.7502L22.7147 41.8667V41.8892L21.9117 42.9831L21.8642 43.0717L18.4134 47.65L18.366 47.74L18.1473 47.9621L17.8796 48.2982L17.7343 48.4318L17.4666 48.7889L16.5443 49.7493L16.4953 49.8154L16.3011 49.9729L16.0823 50.2175L15.0131 51.0893L14.6731 51.3115L14.6244 51.334L14.4787 51.379L14.1143 51.424H14.0172L13.9442 51.4465V51.469Z" fill="#FFF50D"/>
<path d="M13.9442 51.4689L13.9199 51.4239L13.8956 51.4015L13.7985 50.9543L13.7498 50.8207L13.7741 50.7757L13.8228 50.5972L13.8469 50.3975V50.3525L13.9199 50.1739L13.9929 49.9279V49.9054L14.3329 49.1461L14.3572 49.035L14.4787 48.8564L14.7702 48.2307H14.7945L14.9888 47.896L15.0131 47.8285L15.9844 46.2664L16.0578 46.1764L16.3011 45.7742L18.6811 42.7371L18.8264 42.6035L19.6524 41.5995L19.7503 41.532L20.6972 40.4817L21.4023 39.7674" stroke="#FFF50D" stroke-width="0.1212" stroke-miterlimit="10" stroke-linecap="square"/>
<path d="M21.4023 39.7674L23.735 37.5134L23.7824 37.4909L25.338 36.1509L25.9453 35.7262L26.2114 35.5027L27.2332 34.8559L27.8634 34.5648L28.4722 34.4537H28.5196" stroke="#FFF50D" stroke-width="0.1212" stroke-miterlimit="10" stroke-linecap="square"/>
<path d="M28.5685 35.123L28.3988 35.1455L28.3253 35.168L28.2045 35.258L28.0592 35.3241L27.5483 35.7037L26.7957 36.463L26.7712 36.508L26.0906 37.2673L25.9208 37.5134L25.8718 37.557L25.1193 38.5398L25.0948 38.5848L24.3422 39.5677L24.2933 39.6563L23.5407 40.7052L23.4918 40.7502L22.7147 41.8667V41.8892L21.9117 42.9831L21.8643 43.0717L18.4135 47.65L18.366 47.74L18.1473 47.9621L18.0494 48.0971" stroke="#FFF50D" stroke-width="0.1212" stroke-miterlimit="10" stroke-linecap="square"/>
<path d="M18.0494 48.0971L17.8796 48.2982L17.7343 48.4318L17.4666 48.7889L16.5443 49.7493L16.4953 49.8154L16.3011 49.9728L16.0823 50.2175L15.0131 51.0893L14.6731 51.3115L14.6245 51.334L14.4787 51.379L14.1143 51.4239H14.0172L13.9442 51.4464V51.4689" stroke="#FFF50D" stroke-width="0.1212" stroke-miterlimit="10" stroke-linecap="square"/>
<path fill-rule="evenodd" clip-rule="evenodd" d="M28.5196 34.7884V34.4537L28.6664 34.4762H28.8362L28.9326 34.4987H29.0779L29.2247 34.5212H29.3456L29.4924 34.5423H29.832L29.9773 34.5648H30.1242L30.2695 34.5873H30.4393L30.609 34.6098H30.9012L31.2408 34.6548H31.8725L32.0423 34.6773H32.1876L32.3344 34.6998H32.8193L32.9662 34.7223H33.1115L33.2323 34.7434H33.549L33.6943 34.7659H34.6182L34.6656 34.7884H36.1233H34.6656L34.6182 34.8109H33.6943L33.549 34.8334H33.2323L33.1115 34.8559H32.6495L32.5042 34.8784H32.3344L32.1876 34.8994H31.5559L31.4106 34.9219H31.2408L31.071 34.9444H30.7544L30.4393 34.9894H30.2695L30.1242 35.0119H29.6622L29.4924 35.0344H29.3456L29.0779 35.0794H28.9326L28.8362 35.1019H28.6664L28.5196 35.123V34.7884Z" fill="#FFF50D"/>
<path d="M28.5196 34.4537L28.6664 34.4762H28.8362L28.9326 34.4987H29.0779L29.2247 34.5212H29.3456L29.4924 34.5423H29.832L29.9773 34.5648H30.1242L30.2695 34.5873H30.4393L30.609 34.6098H30.9012L31.2408 34.6548H31.8725L32.0423 34.6773H32.1876L32.3344 34.6998H32.8193L32.9662 34.7223H33.1115L33.2323 34.7434H33.549L33.6943 34.7659H34.6182L34.6656 34.7884H35.8327" stroke="#FFF50D" stroke-width="0.1212" stroke-miterlimit="10" stroke-linecap="square"/>
<path d="M35.8326 34.7884H36.1233H34.6655L34.6181 34.8109H33.6942L33.5489 34.8334H33.2323L33.1115 34.8559H32.6495L32.5042 34.8784H32.3344L32.1876 34.8994H31.5559L31.4105 34.9219H31.2408L31.071 34.9444H30.7543" stroke="#FFF50D" stroke-width="0.1212" stroke-miterlimit="10" stroke-linecap="square"/>
<path d="M30.7544 34.9444L30.4393 34.9894H30.2695L30.1242 35.0119H29.6622L29.4924 35.0344H29.3456L29.0779 35.0794H28.9326L28.8362 35.1019H28.6664L28.5196 35.123" stroke="#FFF50D" stroke-width="0.1212" stroke-miterlimit="10" stroke-linecap="square"/>
<path fill-rule="evenodd" clip-rule="evenodd" d="M29.1513 38.0041L29.6622 38.2052L29.881 38.3838L30.2695 38.987L30.3658 39.1881L30.5127 39.5902L30.7788 41.0188V42.872L29.832 49.1236V49.3021L29.7586 49.9279V51.1779H29.7831L29.6133 49.5257L29.5154 49.1236L29.468 48.7214L28.9571 46.8907L28.9326 46.6685L28.3498 44.6353L28.3253 44.4131L28.2534 44.2331L27.9368 42.6035L27.9123 42.1577L27.8634 41.9567V41.7781L27.816 41.331V40.7277L27.9368 39.8799V39.6788L28.2045 38.8745L28.4477 38.4513L28.642 38.2277L29.1513 38.0041Z" fill="#FFF50D"/>
<path d="M29.1513 38.0041L29.6622 38.2052L29.8809 38.3838L30.2695 38.987L30.3658 39.1881L30.5127 39.5902L30.7788 41.0188V42.872L29.832 49.1236V49.3021L29.7586 49.9279V51.1779H29.783L29.6132 49.5257L29.5154 49.1236L29.4679 48.7214L29.2981 48.0971" stroke="#FFF50D" stroke-width="0.1212" stroke-miterlimit="10" stroke-linecap="square"/>
<path d="M29.2982 48.0971L28.9571 46.8907L28.9326 46.6685L28.3498 44.6353L28.3253 44.4131L28.2534 44.2331L27.9368 42.6035L27.9123 42.1577L27.8634 41.9567V41.7781L27.816 41.331V40.7277L27.9368 39.8799V39.6788L28.2045 38.8745L28.4477 38.4513L28.642 38.2277L29.1513 38.0041" stroke="#FFF50D" stroke-width="0.1212" stroke-miterlimit="10" stroke-linecap="square"/>
<path fill-rule="evenodd" clip-rule="evenodd" d="M51.0645 29.2286L51.5984 29.4297L51.866 29.6758L52.1092 29.9654L52.8618 31.394L53.3712 32.8901L53.4201 33.1587L53.5425 33.4708L53.7123 34.3862L53.8086 34.6773L55.2664 47.605L55.4851 48.5429L50.7005 34.3201L50.5781 33.7169L50.5536 33.4259L50.4328 32.824L50.3104 31.238L50.4802 29.9654L50.6026 29.6308L51.0645 29.2286Z" fill="#FFF50D"/>
<path d="M51.0645 29.2286L51.5983 29.4297L51.866 29.6758L52.1092 29.9654L52.8618 31.394L53.3712 32.8901L53.4201 33.1587L53.5425 33.4708L53.7123 34.3862L53.8086 34.6773L55.2664 47.605L55.4851 48.5429L54.1253 44.0546L54.0029 43.7874" stroke="#FFF50D" stroke-width="0.1212" stroke-miterlimit="10" stroke-linecap="square"/>
<path d="M54.0029 43.7874L51.7437 37.9141L50.5781 33.7169L50.5536 33.4259L50.4328 32.824L50.3104 31.238L50.4802 29.9654L50.6026 29.6308L51.0645 29.2286" stroke="#FFF50D" stroke-width="0.1212" stroke-miterlimit="10" stroke-linecap="square"/>
<path fill-rule="evenodd" clip-rule="evenodd" d="M45.9617 25.4336L46.133 24.9414L46.2784 24.7629L46.4481 24.6068L46.6179 24.4943L46.959 24.3382L47.1533 24.2271L47.3231 24.1821L47.4929 24.1146L47.6871 24.0936L47.8569 24.0261L48.5621 23.9361H50.1896L52.5222 24.2721L52.692 24.3382L55.6075 24.8078H55.9715L56.3355 24.8528H57.4047H57.0407L49.9708 26.5275L49.437 26.5936H49.2657L48.9016 26.6386H48.3678L48.0038 26.5936H47.8324L47.6382 26.5486L47.4684 26.5275L46.7403 26.2814L46.546 26.1915L46.3502 26.0579L46.182 25.8793L45.9617 25.4336Z" fill="#FFF50D"/>
<path d="M45.9617 25.4336L46.133 24.9414L46.2784 24.7629L46.4481 24.6068L46.6179 24.4943L46.959 24.3382L47.1533 24.2271L47.3231 24.1821L47.4929 24.1146L47.6871 24.0936L47.8569 24.0261L48.5621 23.9361H50.1896L52.5222 24.2721L52.692 24.3382L55.6075 24.8078H55.9715L56.3355 24.8528H57.4047H57.0407L54.7325 25.2761" stroke="#FFF50D" stroke-width="0.1212" stroke-miterlimit="10" stroke-linecap="square"/>
<path d="M54.7325 25.2761L49.9708 26.5275L49.437 26.5936H49.2657L48.9016 26.6386H48.3678L48.0038 26.5936H47.8324L47.6382 26.5486L47.4684 26.5275L46.7403 26.2814L46.546 26.1915L46.3502 26.0579L46.182 25.8793L45.9617 25.4336" stroke="#FFF50D" stroke-width="0.1212" stroke-miterlimit="10" stroke-linecap="square"/>
</g>
<defs>
<clipPath id="clip0_21_7">
<rect width="67" height="65" fill="white"/>
</clipPath>
</defs>
</svg>
